<svg width="16" height="16" viewBox="0 0 16 16" fill="none" xmlns="http://www.w3.org/2000/svg">
<path d="M7.5333 12.8666C7.41107 12.7444 7.34707 12.5888 7.3413 12.4C7.33552 12.2111 7.39396 12.0555 7.51663 11.9333L10.7833 8.66662H3.33329C3.14441 8.66662 2.98596 8.60262 2.85796 8.47462C2.72996 8.34662 2.66618 8.1884 2.66663 7.99995C2.66663 7.81106 2.73063 7.65262 2.85863 7.52462C2.98663 7.39662 3.14485 7.33284 3.33329 7.33328H10.7833L7.51663 4.06662C7.39441 3.9444 7.33596 3.78884 7.3413 3.59995C7.34663 3.41106 7.41063 3.25551 7.5333 3.13328C7.65552 3.01106 7.81107 2.94995 7.99996 2.94995C8.18885 2.94995 8.34441 3.01106 8.46663 3.13328L12.8666 7.53328C12.9333 7.58884 12.9806 7.6584 13.0086 7.74195C13.0366 7.82551 13.0504 7.91151 13.05 7.99995C13.05 8.08884 13.0362 8.17217 13.0086 8.24995C12.9811 8.32773 12.9337 8.39995 12.8666 8.46662L8.46663 12.8666C8.34441 12.9888 8.18885 13.05 7.99996 13.05C7.81107 13.05 7.65552 12.9888 7.5333 12.8666Z" fill="black"/>
</svg>
