<svg width="490" height="490" viewBox="0 0 490 490" fill="none" xmlns="http://www.w3.org/2000/svg">
<path d="M179.509 188.256C217.244 204.115 265.246 175.825 286.529 125.185C307.81 74.5474 294.432 20.4475 256.699 4.58927C218.975 -11.2649 170.964 17.034 149.683 67.6724C128.4 118.313 141.786 172.402 179.509 188.256ZM344.926 362.881C344.326 360.38 343.738 358.011 343.67 356.159C342.134 316.978 316.421 260.742 248.877 231.225L246.269 230.112C179.365 201.995 122.369 221.066 91.3265 248.302C90.2591 249.231 88.3551 250.219 86.3392 251.262C83.9616 252.479 81.5825 253.746 79.3609 255.275C56.0926 271.25 38.5622 292.879 30.0159 316.177C20.928 340.907 22.896 364.664 35.5108 383.047C40.6099 390.469 47.1966 395.897 55.1039 399.221C71.409 406.073 90.1968 403.163 111.966 399.797C125.814 397.641 140.114 395.421 154.934 395.489C156.544 395.618 162.639 397.341 172.116 401.324C183.386 406.061 191.059 410.465 192.537 411.789C202.57 422.404 210.391 434.084 217.961 445.367C229.559 462.681 240.512 479.024 256.945 485.93C263.998 488.894 271.616 489.906 279.605 488.952C323.68 483.691 353.765 431.08 346.676 371.684C346.32 368.704 345.635 365.773 344.926 362.881ZM325.009 249.405C362.726 265.256 410.735 236.97 432.018 186.329C453.299 135.692 439.915 81.5892 402.198 65.7381C364.46 49.8779 316.453 78.1783 295.172 128.817C273.889 179.457 287.271 233.545 325.009 249.405ZM457.199 249.477C426.956 236.767 390.106 258.184 373.279 298.224C356.459 338.246 366.959 379.568 397.187 392.271C427.413 404.974 464.294 383.566 481.114 343.544C497.941 303.505 487.44 262.186 457.199 249.477ZM116.531 190.322C133.359 150.282 122.857 108.964 92.6277 96.2593C62.397 83.5543 25.5282 104.965 8.70107 145.004C-8.11899 185.026 2.38503 226.349 32.6157 239.054C62.8465 251.759 99.7113 230.344 116.531 190.322Z" fill="#F4A201"/>
</svg>
